<svg width="21" height="26" viewBox="0 0 21 26" fill="none" xmlns="http://www.w3.org/2000/svg">
<path d="M18.8099 8.45732L16.1754 11.0918C15.391 10.2107 14.4386 9.47216 13.3435 8.95137V2.99097H14.6168V0.444336H13.3435H5.70362H4.4303V2.99097H5.70362V8.95137C2.62347 10.4131 0.610352 13.5404 0.610352 16.9975C0.610352 21.9112 4.60984 25.9107 9.52357 25.9107C14.4373 25.9107 18.4368 21.9112 18.4368 16.9975C18.4368 15.6796 18.1401 14.4101 17.6066 13.2616L20.6104 10.2578L18.8099 8.45732ZM7.40223 11.0014L8.25026 10.7022V2.99097H10.7969V10.7022L11.6449 11.0014C13.7726 11.7552 15.3006 13.5748 15.745 15.7241H3.30214C3.74653 13.5748 5.27451 11.7552 7.40223 11.0014Z" fill="#86B94D"/>
</svg>
