<svg width="72" height="72" viewBox="0 0 72 72" fill="none" xmlns="http://www.w3.org/2000/svg">
<g opacity="0.2">
<path d="M27 33.75H13.7475C14.1657 30.9653 15.16 28.2984 16.6671 25.9196C18.1741 23.5409 20.1607 21.5026 22.5 19.935L26.5275 17.235L24.0525 13.5L20.025 16.2C16.6349 18.4592 13.8548 21.5203 11.9316 25.1116C10.0084 28.703 9.00137 32.7136 9 36.7875V51.75C9 52.9435 9.47411 54.0881 10.318 54.932C11.1619 55.7759 12.3065 56.25 13.5 56.25H27C28.1935 56.25 29.3381 55.7759 30.182 54.932C31.0259 54.0881 31.5 52.9435 31.5 51.75V38.25C31.5 37.0565 31.0259 35.9119 30.182 35.068C29.3381 34.2241 28.1935 33.75 27 33.75Z" fill="#184374"/>
<path d="M58.5 33.75H45.2475C45.6657 30.9653 46.66 28.2984 48.1671 25.9196C49.6741 23.5409 51.6607 21.5026 54 19.935L58.0275 17.235L55.575 13.5L51.525 16.2C48.1349 18.4592 45.3548 21.5203 43.4316 25.1116C41.5084 28.703 40.5014 32.7136 40.5 36.7875V51.75C40.5 52.9435 40.9741 54.0881 41.818 54.932C42.6619 55.7759 43.8065 56.25 45 56.25H58.5C59.6935 56.25 60.8381 55.7759 61.682 54.932C62.5259 54.0881 63 52.9435 63 51.75V38.25C63 37.0565 62.5259 35.9119 61.682 35.068C60.8381 34.2241 59.6935 33.75 58.5 33.75Z" fill="#184374"/>
</g>
</svg>
