<svg width="18" height="18" viewBox="0 0 18 18" fill="none" xmlns="http://www.w3.org/2000/svg">
<path d="M17.4873 14.1401L13.4223 10.4441C13.0233 10.0811 12.4073 10.1001 12.0313 10.4871L9.63828 12.9481C9.06228 12.8381 7.90428 12.4771 6.71228 11.2881C5.52028 10.0951 5.15928 8.93412 5.05228 8.36212L7.51128 5.96812C7.89928 5.59212 7.91728 4.97712 7.55428 4.57712L3.85928 0.513121C3.49628 0.112121 2.87928 0.0741212 2.46828 0.426121L0.298282 2.28712C0.125282 2.46112 0.022282 2.69112 0.00828196 2.93612C-0.00671804 3.18612 -0.292718 9.10812 4.29928 13.7021C8.30528 17.7071 13.3233 18.0001 14.7053 18.0001C14.9073 18.0001 15.0313 17.9941 15.0643 17.9921C15.3093 17.9781 15.5393 17.8751 15.7123 17.7011L17.5723 15.5301C17.9263 15.1191 17.8873 14.5031 17.4873 14.1401Z" fill="#86B94D"/>
</svg>
